
<svg xmlns="http://www.w3.org/2000/svg" width="136" height="24" viewBox="0 0 136 24" fill="none">
    <g clip-path="url(#clip0_1016_3130)">
        <path fill-rule="evenodd" clip-rule="evenodd" d="M107.102 23.7453C103.806 23.7453 100.748 22.5712 98.5974 20.4082C96.4465 18.2501 95.2521 15.2881 95.2521 11.9998C95.2521 8.71143 96.4465 5.79819 98.6469 3.64006C100.847 1.43322 103.856 0.259155 107.151 0.259155C108.921 0.259155 110.64 0.682987 112.172 1.48193V6.79201C110.69 5.94434 109.158 5.52538 107.488 5.52538C105.531 5.52538 103.856 6.18305 102.661 7.40583C101.516 8.57989 100.847 10.2265 100.847 12.0095C100.847 13.7925 101.467 15.3466 102.661 16.5645C103.856 17.7824 105.575 18.4449 107.488 18.4449C109.258 18.4449 110.69 18.0698 112.172 17.1783V22.4884C110.596 23.336 108.876 23.755 107.107 23.755L107.102 23.7453ZM5.49612 10.5426V5.65636H8.84136C9.60953 5.65636 10.2786 5.8902 10.7543 6.31403C11.2301 6.73786 11.5176 7.34681 11.5176 8.0532C11.5176 9.50982 10.3727 10.5426 8.84136 10.5426H5.49612ZM0 23.4134H5.49612V15.6188H8.84136C11.131 15.6188 13.2373 14.8686 14.6695 13.5045C16.1513 12.1405 16.9641 10.1675 16.9641 8.0532C16.9641 5.93891 16.1513 4.06334 14.6695 2.69928C13.1877 1.33523 11.136 0.584997 8.84136 0.584997H0V23.4134ZM51.9926 23.4134H58.7277V20.6902C58.7277 19.3408 57.6175 18.2495 56.2447 18.2495H53.0928C52.4683 18.2495 51.8488 18.0644 51.4177 17.6406C50.937 17.2167 50.6991 16.6516 50.6991 16.0427V0.584997H45.2525V17.0267C45.2525 18.9997 45.872 20.5976 47.1159 21.723C48.3599 22.8045 49.9854 23.4134 51.9926 23.4134ZM21.697 13.5484C21.7911 12.185 23.0834 11.1526 24.6583 11.1516C26.2826 11.1526 27.5748 12.1412 27.6689 13.5484V13.641H21.697V13.5484ZM24.8985 19.4187C23.1788 19.4187 21.7416 18.2446 21.6475 16.788L33.0709 16.8757V15.6529C33.0709 13.1197 32.3076 10.9567 30.7763 9.40751C29.2449 7.85834 27.1882 7.05939 24.7053 7.05939C22.3661 7.05939 20.1656 7.90218 18.5897 9.40751C17.0137 10.9616 16.1513 13.0758 16.1513 15.3753C16.1513 20.3102 19.7394 23.7398 24.8985 23.7398C27.0494 23.7398 28.9128 23.1747 30.3451 22.0932C31.7328 21.1092 32.6893 19.6038 33.165 17.7721H27.8126C27.1436 18.9023 26.2366 19.4187 24.8985 19.4187ZM63.5252 15.3807C63.5252 13.4564 65.1507 11.9072 67.2074 11.9072C68.1639 11.9072 69.0708 12.2823 69.7399 12.94C70.4585 13.5977 70.8401 14.4405 70.8401 15.3807C70.8401 17.3537 69.2146 18.9516 67.2074 18.9516C66.2014 18.9516 65.2944 18.5765 64.6254 17.9188C63.9068 17.2124 63.5252 16.3209 63.5252 15.3807ZM60.7102 21.3046C62.0979 22.8538 63.9117 23.7453 65.9189 23.7453C67.8814 23.7453 69.502 22.995 70.6518 21.5384L70.8451 21.2559V21.631C70.8451 22.6151 71.6578 23.414 72.6589 23.414H76.0042V7.3961H70.8451V9.5591L70.6518 9.27655C69.5516 7.81993 67.926 7.0697 65.9189 7.0697C63.9117 7.0697 62.0979 7.96608 60.7102 9.51526C59.273 11.1132 58.5098 13.13 58.5098 15.3856C58.5098 17.6411 59.2779 19.7067 60.7102 21.3046ZM82.3235 15.3804C82.3235 13.4562 83.949 11.907 86.0504 11.907C88.0575 11.907 89.6335 13.4562 89.6335 15.3804C89.6335 16.3694 89.2519 17.2122 88.5828 17.9186C87.9138 18.5762 87.0515 18.9513 86.0504 18.9513C85.0493 18.9513 84.0928 18.5762 83.4237 17.9186C82.7051 17.2122 82.3235 16.3694 82.3235 15.3804ZM82.5614 21.4456C83.7112 22.9461 85.2871 23.745 87.2943 23.745V23.7402C89.2519 23.7402 91.1153 22.8486 92.503 21.2995C93.8906 19.7016 94.6538 17.5873 94.6538 15.3804C94.6538 13.1736 93.8906 11.0593 92.503 9.51013C91.1153 7.95609 89.351 7.06458 87.2943 7.06458C85.2376 7.06458 83.6616 7.81481 82.5614 9.32014L82.3235 9.60269V0.580444H77.209V23.4186H80.2668C81.6049 23.4186 82.3235 22.7122 82.3235 21.5382V21.1631L82.5614 21.4456ZM121.28 11.9072C119.273 11.9072 117.885 13.4077 117.885 15.4294C117.885 17.4511 119.318 18.9077 121.28 18.9077C122.237 18.9077 123.094 18.5326 123.718 17.9237C124.387 17.266 124.724 16.4183 124.724 15.4343C124.724 13.4125 123.243 11.9121 121.285 11.9121L121.28 11.9072ZM121.28 23.7453C118.941 23.7453 116.835 22.8976 115.259 21.3484C113.683 19.8431 112.82 17.7288 112.82 15.4294C112.82 10.6844 116.453 7.06482 121.28 7.06482C123.575 7.06482 125.726 7.91248 127.302 9.46166C128.878 11.0108 129.74 13.1251 129.74 15.4294C129.74 20.1744 126.107 23.7453 121.28 23.7453ZM132.748 23.7453C130.934 23.7453 129.497 22.3374 129.497 20.5495C129.497 18.7616 130.929 17.4511 132.748 17.4511C134.567 17.4511 135.999 18.8152 135.999 20.5495C135.999 22.2838 134.567 23.7453 132.748 23.7453ZM40.9529 23.3653H44.2437V21.1585C44.2437 19.809 43.1336 18.7178 41.7608 18.7178C41.1363 18.7178 40.5168 18.484 40.0857 18.0601C39.6545 17.6363 39.4166 17.0712 39.4166 16.4622V12.1849H44.2437V9.83682C44.2437 8.48738 43.1336 7.39613 41.7608 7.39613H39.4216V2.83142H34.2129V16.9786C34.2129 18.9516 34.8819 20.5447 36.1259 21.6749C37.3203 22.7564 38.9954 23.3653 40.9529 23.3653Z" fill="#1E1F24"/>
    </g>
    <defs>
        <clipPath id="clip0_1016_3130">
            <rect width="136" height="24" fill="white"/>
        </clipPath>
    </defs>
</svg>